<svg xmlns="http://www.w3.org/2000/svg">
 <!-- Generator: Sketch 46.2 (44496) - http://www.bohemiancoding.com/sketch -->
 <g fill="#231F20">
    <path d="m0.027388,27.604207c4.09594,-0.00618 7.6342,0.02049 11.43358,0c0.47218,-0.0027 1.02947,0.47434 1.4096,0.86402c1.47354,1.51079 2.84617,3.12169 4.34166,4.60928c1.90759,1.89814 3.89759,3.71239 5.75049,5.46711c4.4106,-4.46353 8.79154,-8.8973 13.18018,-13.33918c-2.26191,1.29236 -9.06807,5.43271 -10.25121,6.0555c-1.93531,1.01904 -3.03989,1.49648 -5.0842,-0.60424c-1.2101,-1.24365 -2.44986,-2.45792 -3.64687,-3.71394c-1.38649,-1.45511 -1.53824,-2.32841 -0.52571,-4.10439c1.95958,-3.43753 5.72661,-10.14366 6.10096,-11.04788c-0.33815,0.31004 -6.81809,6.76024 -9.68698,9.70719c-0.6659,0.68426 -1.3268,1.04302 -2.33239,1.02253c-3.43967,-0.07036 -6.88126,-0.02706 -10.70991,-0.02706c2.01928,-2.15407 15.50487,-15.94904 20.49048,-20.96114c2.01889,-2.02958 3.32528,-1.99556 5.32145,0.10709c2.0262,2.13357 4.06474,4.25594 6.07862,6.40149c2.07551,2.21128 1.76355,3.95981 0.07318,6.41425c-1.74621,2.53485 -3.70926,4.98427 -5.69349,7.58832c1.83826,-1.26414 6.5897,-5.23748 8.33707,-6.52211c1.61258,-1.18566 3.46316,-1.15048 4.85428,0.17667c2.59968,2.47996 5.14005,5.02679 7.61494,7.632c1.28559,1.35383 1.21627,2.46372 -0.12902,3.8651c-2.39941,2.29439 -21.84924,21.93842 -22.37419,22.29292c-1.12344,0.75964 -2.35049,0.74805 -3.33259,-0.15309c-1.26403,-1.15937 -20.59177,-21.06821 -21.21993,-21.73044"/>
   </g>
</svg>