<?xml version="1.0" encoding="iso-8859-1"?>
<!-- Generator: Adobe Illustrator 16.0.0, SVG Export Plug-In . SVG Version: 6.00 Build 0)  -->
<!DOCTYPE svg PUBLIC "-//W3C//DTD SVG 1.1//EN" "http://www.w3.org/Graphics/SVG/1.1/DTD/svg11.dtd">
<svg version="1.1" xmlns="http://www.w3.org/2000/svg" xmlns:xlink="http://www.w3.org/1999/xlink" x="0px" y="0px"
	 width="911.886px" height="284.965px" viewBox="0 0 911.886 284.965" style="enable-background:new 0 0 911.886 284.965;"
	 xml:space="preserve">
<g>
		<g>
			<polygon style="fill-rule:evenodd;clip-rule:evenodd;fill:#fff;" points="236.063,114.47 94.724,254.512 123.589,283.479 
				264.928,143.438"/>
		</g>
		<g>
			<path style="fill-rule:evenodd;clip-rule:evenodd;fill:#fff;" d="M67.375,169.166l-63.321-5.646l119.156,119.577
				l29.032-28.766L67.375,169.166z M11.712,113.307l-9.178,9.094l20.019,1.785L11.712,113.307z"/>
		</g>

		<g>
			<path style="fill-rule:evenodd;clip-rule:evenodd;fill:#fff;" d="M124.019,2.031L2.535,122.401l53.304,4.752l97.046-96.155
				L124.019,2.031z M11.546,171.04l6.344-6.286l-13.837-1.233L11.546,171.04z"/>
		</g>

		<g>
			<polygon style="fill-rule:evenodd;clip-rule:evenodd;fill:#fff;" points="118.458,7.542 118.099,147.563 159.038,147.693 
				159.321,37.457 124.02,2.032"/>
		</g>

		<g>
			<polygon style="fill-rule:evenodd;clip-rule:evenodd;fill:#fff;" points="264.928,143.438 228.971,107.353 118.262,106.954 
				118.124,147.731 260.077,148.244"/>
		</g>
</g>
<g id="MBlog_1_" style="enable-background:new ;">
		<g>
			<path style="fill-rule:evenodd;clip-rule:evenodd; fill:#fff;" d="M471.042,66.995h-41.587c0,8.013-5.035,25.81-15.108,53.386
				c-10.072,27.578-15.108,45.265-15.108,53.061h-1.625c0-7.724-4.423-25.375-13.267-52.953
				c-8.845-27.576-13.266-45.408-13.266-53.494h-41.913c0,9.386-2.617,34.689-7.851,75.91c-5.236,41.223-7.852,62.916-7.852,65.081
				h28.591c0-9.384,0.848-28.913,2.545-58.584c1.696-29.671,2.581-49.017,2.653-58.042h1.625c1.517,9.025,3.537,18.122,6.065,27.289
				c2.527,9.168,7.887,25.195,16.083,48.08c8.193,22.886,12.292,36.639,12.292,41.258h23.935c0-4.476,4.277-18.101,12.833-40.879
				c8.556-22.775,14.385-40.013,17.49-51.707c3.104-11.696,5.018-19.709,5.74-24.041h1.625c0.071,7.22,0.867,25.394,2.382,54.524
				c1.516,29.129,2.275,49.83,2.275,62.103h31.515c0-2.31-1.679-22.649-5.036-61.021C472.721,108.596,471.042,81.938,471.042,66.995
				z M603.255,141.227c-6.498-5.45-14.116-8.861-22.852-10.233v-1.625c16.389-5.198,24.584-15.81,24.584-31.837
				c0-20.791-15.992-31.188-47.977-31.188c-4.405,0-10.523,0.108-18.356,0.325c-7.836,0.217-13.413,0.325-16.732,0.325h-17.545
				c0.938,18.555,1.408,40.97,1.408,67.247c0,27.361-0.471,51.942-1.408,73.744c17.256,0.434,29.962,0.649,38.122,0.649
				c47.002,0,70.503-14.364,70.503-43.098C613.002,154.781,609.753,146.678,603.255,141.227z M531.777,88.328
				c5.776-1.083,12.383-1.625,19.819-1.625c16.172,0,24.259,6.461,24.259,19.383c0,13.357-11.408,20.034-34.222,20.034
				c-3.033,0-5.921-0.071-8.665-0.217C532.968,108.144,532.571,95.621,531.777,88.328z M574.448,183.459
				c-6.211,3.213-15.993,4.819-29.35,4.819c-4.911,0-8.593-0.288-11.046-0.866c-0.65-12.706-0.976-26.603-0.976-41.691
				c3.61-0.36,7.906-0.542,12.888-0.542c25.197,0,37.797,7.185,37.797,21.55C583.761,174.671,580.657,180.248,574.448,183.459z
				 M628.901,55.733c2.237,19.708,3.357,43.64,3.357,71.795c0,28.877-0.541,55.697-1.625,80.458H660.2
				c-1.083-24.617-1.625-51.437-1.625-80.458c0-28.588,0.542-53.097,1.625-73.528L628.901,55.733z M768.423,114.479
				c-10.288-9.421-22.617-14.132-36.983-14.132c-15.162,0-28.375,5.162-39.639,15.485c-11.263,10.324-16.895,24.619-16.895,42.882
				c0,16.967,5.161,30.123,15.487,39.472c10.323,9.351,22.705,14.023,37.146,14.023c15.162,0,28.338-5.125,39.53-15.377
				c11.189-10.25,16.786-24.474,16.786-42.665C783.857,137.13,778.712,123.9,768.423,114.479z M748.389,182.322
				c-4.803,6.643-11.03,9.962-18.683,9.962c-7.87,0-14.26-3.555-19.169-10.666c-4.911-7.109-7.364-15.899-7.364-26.368
				c0-9.963,2.399-18.264,7.201-24.907c4.802-6.641,11.028-9.962,18.683-9.962c7.868,0,14.258,3.556,19.169,10.667
				c4.909,7.111,7.364,15.901,7.364,26.368C755.59,167.378,753.189,175.682,748.389,182.322z M903.506,110.311l2.383-20.142
				c-3.538-1.66-7.654-2.491-12.346-2.491c-11.913,0-18.917,6.822-21.011,20.466h-1.516c-7.147-4.331-16.462-6.497-27.941-6.497
				c-16.824,0-29.26,3.574-37.31,10.721c-8.052,7.147-12.075,16.027-12.075,26.639c0,12.417,5.848,21.55,17.544,27.397v1.516
				c-8.304,5.343-12.454,11.984-12.454,19.925c0,7.869,3.032,13.717,9.097,17.543v1.624c-4.981,1.011-9.368,3.808-13.158,8.393
				c-3.791,4.584-5.686,10.16-5.686,16.73c0,21.225,16.895,31.837,50.684,31.837c17.256,0,31.912-4.079,43.971-12.236
				c12.057-8.159,18.086-19.167,18.086-33.028c0-19.708-14.477-29.563-43.428-29.563c-16.752,0-27.419-0.884-32.003-2.653
				c-4.586-1.768-6.877-4.854-6.877-9.259c0-2.815,1.912-5.089,5.739-6.822c4.693,1.156,10.722,1.733,18.087,1.733
				c15.089,0,26.442-3.646,34.06-10.938c7.617-7.291,11.426-16.099,11.426-26.423c0-6.714-2.13-12.777-6.39-18.192v-1.407
				C885.205,111.935,892.244,110.311,903.506,110.311z M823.365,210.478c8.23,0.72,16.389,1.083,24.476,1.083
				c9.964,0,16.984,1.19,21.064,3.572c4.078,2.383,6.119,6.244,6.119,11.588c0,6.424-2.997,11.586-8.989,15.484
				c-5.993,3.899-14.151,5.848-24.476,5.848c-18.483,0-27.725-6.93-27.725-20.791C813.834,219.825,817.01,214.23,823.365,210.478z
				 M856.125,151.839c-4.08,3.213-8.755,4.818-14.024,4.818c-5.561,0-10.435-1.659-14.621-4.98c-4.188-3.32-6.281-8.193-6.281-14.62
				c0-6.351,2.039-11.17,6.119-14.456c4.078-3.285,8.826-4.927,14.241-4.927s10.216,1.697,14.404,5.09
				c4.187,3.394,6.28,8.338,6.28,14.835C862.244,143.88,860.204,148.627,856.125,151.839z"/>
		</g>
</g>
</svg>
